<svg width="25" height="24" viewBox="0 0 25 24" fill="none" xmlns="http://www.w3.org/2000/svg">
<path d="M4.48528 3.51472C-0.181624 8.18162 -0.181624 15.8184 4.48528 20.4853C9.15219 25.1522 16.7889 25.1522 21.4558 20.4853C26.1227 15.8184 26.1227 8.18162 21.4558 3.51472C16.7889 -1.15219 9.15219 -1.15219 4.48528 3.51472ZM17.2132 9.87868L15.0919 12L17.2132 14.1213C17.7966 14.7047 17.7966 15.6593 17.2132 16.2426C16.6298 16.826 15.6752 16.826 15.0919 16.2426L12.9706 14.1213L10.8492 16.2426C10.2659 16.826 9.31128 16.826 8.72792 16.2426C8.14456 15.6593 8.14456 14.7047 8.72792 14.1213L10.8492 12L8.72792 9.87868C8.14456 9.29532 8.14456 8.34072 8.72792 7.75736C9.31128 7.174 10.2659 7.174 10.8492 7.75736L12.9706 9.87868L15.0919 7.75736C15.6752 7.174 16.6298 7.174 17.2132 7.75736C17.7966 8.34072 17.7966 9.29532 17.2132 9.87868Z" fill="#6F7782"/>
</svg>
