<svg width="93" height="42" viewBox="0 0 93 42" fill="none" xmlns="http://www.w3.org/2000/svg">
<path d="M28.994 25.6703H28.5268C28.5268 35.0157 18.4338 36.8848 18.4338 36.8848C17.7796 37.0016 17.102 37.0717 16.4011 37.095C12.2892 37.2586 8.34075 35.8334 5.32687 33.0298C3.1307 31.0205 1.61208 28.4739 0.864448 25.6469C0.584086 24.5722 0.397179 23.4508 0.350452 22.306C0.116817 23.3807 0 24.5021 0 25.6469C0 25.8572 -3.56846e-07 26.0675 0.0233631 26.2778C0.186907 30.3897 1.96253 34.198 4.99978 36.9782C7.0324 38.8473 9.48556 40.1089 12.1023 40.693C13.3873 40.9734 14.719 41.0902 16.0741 41.0435C20.186 40.8799 23.9943 39.1043 26.7745 36.067C28.6436 34.0344 30.279 31.5813 30.8398 28.9646C30.4659 27.8431 29.6015 26.7217 28.994 25.6703Z" fill="#191919"/>
<path d="M9.88152 20.5777C11.2366 19.1058 13.0823 18.2413 15.0916 18.1712C19.2035 18.0077 23.152 19.4329 26.1658 22.2365C27.2873 23.2645 28.2218 24.4093 28.9695 25.6709H29.9507C29.2031 22.8673 27.6845 20.3207 25.4883 18.2881C22.4511 15.5078 18.526 14.0593 14.414 14.2228C13.7365 14.2462 13.0589 14.3163 12.3814 14.4331C12.2412 14.5733 12.101 14.7368 11.9609 14.877C9.2507 17.8208 7.80217 21.6524 7.89562 25.6475C7.89562 23.7785 8.59653 21.9795 9.88152 20.5777Z" fill="#191919"/>
<path d="M30.8381 29.0103C30.8381 29.0103 30.254 26.7441 29.9736 25.6693H28.9924C29.5998 26.7207 30.8381 29.0103 30.8381 29.0103Z" fill="#191919"/>
<path d="M10.3278 31.1868C8.85592 29.8317 7.99147 27.986 7.92138 25.9768C7.92138 25.8833 7.92138 25.7665 7.92138 25.673C7.82793 21.6779 9.27646 17.8463 11.9866 14.9025C13.8557 12.8699 16.192 11.398 18.762 10.6036C14.6501 10.7672 10.8418 12.5428 8.06156 15.58C5.49158 18.3603 4.06641 21.9349 3.99632 25.673C3.99632 26.0001 3.99632 26.3272 3.99632 26.6543C4.01969 27.3319 4.08978 28.0094 4.20659 28.6869C4.34677 28.8271 4.51032 28.9673 4.6505 29.1075C7.68775 31.8877 11.6128 33.3363 15.7248 33.1727C13.7155 33.2662 11.7997 32.5653 10.3278 31.1868Z" fill="#191919"/>
<path d="M26.8439 25.6716H22.9188C22.9188 27.5641 22.2179 29.363 20.9329 30.7648C19.5779 32.2367 17.7321 33.1012 15.7229 33.1713C11.6109 33.3348 7.6625 31.9097 4.64861 29.106C3.52717 28.078 2.59263 26.9332 1.845 25.6716C1.21419 24.6203 0.723554 23.4988 0.349739 22.3306C0.396466 23.4754 0.56001 24.5969 0.863735 25.6716C1.61137 28.4752 3.12999 31.0218 5.32616 33.0545C8.3634 35.8347 12.2885 37.2832 16.4004 37.1197C17.078 37.0963 17.7555 37.0263 18.4331 36.9094C18.4331 36.9094 28.5261 35.017 28.5261 25.695H26.8439V25.6716Z" fill="#191919"/>
<path d="M14.7668 10.2513C10.6548 10.4382 6.84654 12.1905 4.06629 15.2277C2.19722 17.2603 0.93559 19.7135 0.351503 22.3302C0.701955 23.4984 1.21595 24.6198 1.84676 25.6712C2.50094 26.7693 3.2953 27.7739 4.20647 28.6851C4.08966 28.0309 4.01956 27.3534 3.9962 26.6525C3.97284 26.3254 3.97284 25.9983 3.9962 25.6712C4.06629 21.9097 5.49146 18.3584 8.06144 15.5782C10.8417 12.5409 14.6499 10.7887 18.7619 10.6018C17.4536 10.3214 16.1218 10.2046 14.7668 10.2513Z" fill="#191919"/>
<path d="M28.9928 25.6714C28.3387 24.5733 27.5443 23.5687 26.6331 22.6575C26.7499 23.3117 26.82 23.9892 26.8434 24.6901C26.8668 25.0172 26.8668 25.3443 26.8434 25.6714C26.8434 25.6714 26.8434 29.2927 26.8434 33.1944C26.8434 37.797 30.8152 40.7174 30.8152 40.7174V29.0123L28.9928 25.6714Z" fill="#191919"/>
<path d="M8.57544 31.6066C5.35128 30.158 3.24857 27.6815 1.98695 25.6723C0.912226 23.9434 0.421594 22.5416 0.351503 22.3546C0.701955 23.5228 1.21595 24.6209 1.8234 25.6723C2.57103 26.9339 3.50557 28.1021 4.62702 29.1067C7.66427 31.8869 11.5893 33.3355 15.7013 33.1719C16.2854 33.1486 16.8695 33.0551 17.4302 32.8916C15.3041 33.2887 12.2435 33.2654 8.57544 31.6066Z" fill="#191919"/>
<path d="M24.2251 37.2372C24.2718 37.3073 24.3185 37.354 24.3419 37.4007C24.3185 37.3306 24.2718 37.2839 24.2251 37.2372Z" fill="#191919"/>
<path d="M24.2239 37.2136C22.9156 35.3912 22.9156 32.8212 22.9156 32.8212V25.672C22.9156 25.5786 22.9156 25.4617 22.9156 25.3683C22.8922 24.7842 22.7987 24.2001 22.6352 23.6394C22.752 24.2468 22.7987 24.9244 22.8221 25.6954C22.8221 25.6954 22.8221 29.9475 22.8221 32.8446C22.7987 34.9707 23.7333 36.536 24.2239 37.2136Z" fill="#191919"/>
<path d="M24.3657 37.4021C24.4591 37.5189 24.5058 37.5656 24.5058 37.5656C24.4591 37.5189 24.4124 37.4722 24.3657 37.4021Z" fill="#191919"/>
<path d="M30.8167 25.0156C30.6532 20.9037 28.8775 17.0954 25.8403 14.3152C23.8077 12.4461 21.3545 11.1845 18.7378 10.6004C16.3547 11.3246 14.1819 12.633 12.3829 14.4553C13.0371 14.3385 13.7147 14.2684 14.4156 14.2451C18.5275 14.0815 22.476 15.5067 25.4898 18.3103C27.686 20.3196 29.2046 22.8662 29.9523 25.6932H30.8167C30.8401 25.4595 30.8401 25.2493 30.8167 25.0156Z" fill="#191919"/>
<path d="M30.8388 25.669H29.9743C30.2547 26.7438 30.8388 29.01 30.8388 29.01C30.8388 29.01 30.8388 26.7905 30.8388 25.669Z" fill="#191919"/>
<path d="M9.46098 18.8243C12.1478 12.8666 18.3157 10.7406 18.7129 10.6004C16.1429 11.3947 13.8299 12.8666 11.9609 14.8759C9.2507 17.8197 7.80217 21.6513 7.89562 25.6464C7.89562 25.6464 8.0358 23.8708 8.08253 23.5905C8.26944 22.1653 8.68998 20.5766 9.46098 18.8243Z" fill="#191919"/>
<path d="M26.8431 33.1934C26.8431 29.2917 26.8431 25.6704 26.8431 25.6704C26.8431 25.3433 26.8431 25.0162 26.8431 24.6891C26.8197 24.0116 26.7496 23.334 26.6328 22.6565C26.4926 22.5163 26.3291 22.3761 26.1889 22.236C23.1517 19.4557 19.2266 18.0072 15.1146 18.1707C17.1239 18.0773 19.0397 18.7782 20.5116 20.1566C21.9835 21.5117 22.8479 23.3574 22.918 25.3667C22.918 25.4601 22.918 25.5769 22.918 25.6704V32.8196C22.918 37.1886 26.4693 40.7398 30.8382 40.7398C30.8382 40.7164 26.8431 37.796 26.8431 33.1934Z" fill="#191919"/>
<path d="M28.9964 25.6704C28.2487 24.4088 27.3142 23.2406 26.1927 22.236C23.1555 19.4557 19.2304 18.0072 15.1185 18.1707C14.5344 18.1941 13.9503 18.2875 13.3896 18.4511C15.539 18.0539 18.5996 18.0773 22.2677 19.7361C25.4918 21.1846 27.5945 23.6611 28.8562 25.6704C29.9309 27.3993 30.7953 28.8011 30.8421 28.988C30.4683 27.8198 29.6038 26.6984 28.9964 25.6704Z" fill="#191919"/>
<path d="M43.2471 31.1184C41.7752 29.7633 41.5182 27.9176 41.4247 25.9083C41.4247 25.8148 41.4247 25.698 41.4247 25.6046V10.9791C41.4247 6.61009 37.2894 3.05885 32.9204 3.05885C32.9204 3.05885 36.8922 5.97928 36.8922 10.5819C36.8922 14.4836 36.8922 25.5812 36.8922 25.5812C36.8922 25.9083 36.8922 26.2354 36.8922 26.5625C36.9156 27.24 36.9856 27.9176 37.1025 28.5951C37.2426 28.7353 37.4062 28.8755 37.5464 29.0156C40.2799 31.5155 43.7143 32.9407 47.3824 33.0809V33.0342C45.8638 32.8706 44.4152 32.1931 43.2471 31.1184Z" fill="#191919"/>
<path d="M36.8933 26.5863C36.87 26.2592 36.87 25.9322 36.8933 25.6051C36.8933 25.6051 36.8933 14.5074 36.8933 10.6057C36.8933 6.00313 32.9216 3.0827 32.9216 3.0827L33.015 25.6284H34.7673C35.4215 26.7265 36.2158 27.7311 37.127 28.6423C37.0102 27.9414 36.9401 27.2639 36.8933 26.5863Z" fill="#191919"/>
<path d="M51.029 36.8678C50.4683 36.9612 49.9076 37.008 49.3235 37.0313C48.9964 37.0547 48.6693 37.0547 48.3422 37.0313C48.1086 37.0313 47.8983 37.008 47.6647 37.008C47.5712 37.008 47.4544 36.9846 47.361 36.9846C47.2441 36.9846 47.1273 36.9612 47.0105 36.9612C46.8703 36.9379 46.7301 36.9379 46.6133 36.9145C46.5432 36.9145 46.4498 36.8911 46.3797 36.8911C46.2161 36.8678 46.076 36.8444 45.9124 36.821C45.8657 36.821 45.7956 36.7977 45.7489 36.7977C45.5853 36.7743 45.3984 36.7276 45.2349 36.6809C45.2115 36.6809 45.1648 36.6575 45.1414 36.6575C44.9545 36.6108 44.7676 36.5641 44.5807 36.5173C44.5573 36.5173 44.534 36.5173 44.534 36.494C44.3471 36.4472 44.1368 36.3771 43.9499 36.3071H43.9265C43.7163 36.237 43.5294 36.1669 43.3424 36.0968C41.4967 35.4192 39.7912 34.3679 38.2959 32.9894C36.0998 30.9802 34.5811 28.4336 33.8335 25.63C33.2962 24.345 32.9691 19.9526 32.9691 19.9526C32.9691 19.9526 33.0625 24.4851 33.0625 25.63C33.0625 25.8402 33.0625 26.0505 33.0625 26.2608C33.2261 30.3727 34.9316 34.181 37.9688 36.9612C40.0015 38.8303 42.4546 40.0919 45.0713 40.676C45.4919 40.7695 46.2395 40.933 46.7769 40.933C46.917 40.933 47.0339 40.9564 47.174 40.9564C49.3468 40.9564 51.0991 39.2041 51.0991 37.0313C51.029 36.9612 51.029 36.9145 51.029 36.8678Z" fill="#191919"/>
<path d="M48.3403 33.2924C48.0132 33.1756 47.6627 33.1055 47.2889 33.1055C43.6676 32.9419 40.2565 31.5401 37.5697 29.0402C36.4716 28.0122 35.5371 26.8674 34.7661 25.6058C33.5746 23.947 32.9204 19.0874 32.9204 19.0874C32.9204 19.0874 32.9671 23.3395 33.7849 25.6058C34.5325 28.4094 36.0511 30.956 38.2473 32.9653C39.7425 34.3437 41.4481 35.3717 43.2938 36.0726C44.9059 36.6801 46.588 37.0072 48.3403 37.0305C48.6674 37.0305 48.9945 37.0305 49.3216 37.0305C49.9056 37.0072 50.4664 36.9604 51.0271 36.867C50.957 35.1848 49.8589 33.783 48.3403 33.2924Z" fill="#191919"/>
<path d="M47.1219 33.0324C45.5098 32.939 43.594 32.4951 41.4913 31.5372C38.2672 30.0886 36.1644 27.6121 34.9028 25.6029C33.8281 23.874 33.1038 21.0236 32.9169 18.0798C32.9169 21.4442 34.1318 24.5515 34.7626 25.6029C35.5103 26.8645 36.4448 28.0327 37.5663 29.0373C40.2998 31.5605 43.7576 32.9623 47.4256 33.1025C47.1219 33.0324 47.2621 33.0558 47.1219 33.0324Z" fill="#191919"/>
<path d="M84.792 22.0484V41.0896C88.8105 38.1925 88.7637 33.5432 88.7637 33.5432V26.0201H86.6377L84.792 22.0484Z" fill="url(#paint0_linear_4301_680)"/>
<path d="M92.6888 33.1696V26.0203H88.7637V33.5434C88.7637 33.5434 88.7871 38.1927 84.792 41.0898C89.1609 41.0898 92.6888 37.5385 92.6888 33.1696Z" fill="#139B48"/>
<path d="M92.7145 26.0438V18.5441V10.6239C92.7145 10.6239 88.7894 13.5444 88.7894 18.147C88.7894 18.2638 88.7894 18.404 88.7894 18.5208C88.7894 22.3057 88.7894 26.0204 88.7894 26.0204C88.7894 26.2307 88.7894 26.441 88.7894 26.6513V28.8007C88.8595 28.8708 88.9296 28.9642 89.023 29.0343C89.1632 29.1745 89.3268 29.3147 89.4669 29.4549C90.4716 30.366 91.5696 31.137 92.7378 31.7679L92.7145 26.0438Z" fill="url(#paint1_linear_4301_680)"/>
<path d="M84.7931 18.5452V21.5591C84.7931 21.5591 85.0033 23.2413 85.5173 23.7786C86.008 25.0169 86.6388 26.0449 86.6388 26.0449C87.2462 27.0495 87.9471 27.9841 88.7649 28.8251V26.6757C88.7649 26.4654 88.7649 26.2552 88.7649 26.0449C88.7649 26.0449 88.7649 22.3301 88.7649 18.5452C88.7649 18.4284 88.7649 18.2882 88.7649 18.1714C88.7649 13.5688 92.6899 10.6484 92.6899 10.6484C88.321 10.625 84.7931 14.1763 84.7931 18.5452Z" fill="url(#paint2_linear_4301_680)"/>
<path d="M91.3834 14.1288C91.3367 14.0587 91.2899 14.0119 91.2666 13.9652C91.3133 14.0119 91.3367 14.082 91.3834 14.1288Z" fill="white"/>
<path d="M91.2662 13.9638C91.1727 13.847 91.126 13.8003 91.126 13.8003C91.1727 13.847 91.2194 13.8937 91.2662 13.9638Z" fill="white"/>
<path d="M89.6988 0.926939C89.1848 1.97829 88.811 3.23992 88.811 4.64173C88.811 4.75854 88.811 4.89873 88.811 5.01554C88.811 6.30053 88.811 7.60889 88.811 8.73033C90.867 8.73033 92.5492 7.16498 92.7361 5.15572V5.01554V4.38473C92.5725 2.70256 91.3343 1.30075 89.6988 0.926939Z" fill="#139B48"/>
<path d="M88.8118 4.64325C88.8118 3.24144 89.1856 1.97982 89.6996 0.92846C89.4192 0.85837 89.1155 0.835007 88.8118 0.835007C86.6156 0.835007 84.8634 2.61063 84.8634 4.78343C84.8634 6.95623 86.639 8.73185 88.8118 8.73185C88.8118 7.61041 88.8118 6.30205 88.8118 5.01707C88.8118 4.90025 88.8118 4.78343 88.8118 4.64325Z" fill="url(#paint3_linear_4301_680)"/>
<path d="M89.7906 29.6188C86.3562 26.5581 84.7908 22.4462 84.7908 21.4883C84.7908 23.6611 87.4075 27.5861 89.4402 29.4552C90.4448 30.3664 91.5429 31.1374 92.711 31.7682C92.6877 31.7916 90.655 30.3898 89.7906 29.6188Z" fill="url(#paint4_linear_4301_680)"/>
<path d="M80.9086 25.6674H80.4414C80.4414 35.0128 70.3484 36.8819 70.3484 36.8819C69.6942 36.9987 69.0166 37.0688 68.3157 37.0922C64.2038 37.2557 60.2553 35.8305 57.2415 33.0269C55.0453 31.0177 53.5267 28.4711 52.779 25.6441C52.4987 24.5694 52.3118 23.4479 52.265 22.3031C52.0314 23.3778 51.9146 24.4993 51.9146 25.6441C51.9146 25.8544 51.9146 26.0646 51.9379 26.2749C52.1015 30.3869 53.8771 34.1951 56.9144 36.9754C58.947 38.8444 61.4001 40.1061 64.0169 40.6901C65.3018 40.9705 66.6336 41.0873 67.9886 41.0406C72.1006 40.8771 75.9088 39.1014 78.6891 36.0642C80.5582 34.0316 82.1936 31.5784 82.7543 28.9617C82.3805 27.8402 81.5394 26.7188 80.9086 25.6674Z" fill="url(#paint5_linear_4301_680)"/>
<path d="M59.8346 25.9714C59.8346 25.878 59.8346 25.7611 59.8346 25.6677C59.8112 25.7611 59.8112 25.878 59.8346 25.9714Z" fill="url(#paint6_linear_4301_680)"/>
<path d="M61.7964 20.576C63.1515 19.1041 64.9972 18.2397 67.0064 18.1696C71.1184 18.006 75.0668 19.4312 78.0807 22.2348C79.2021 23.2628 80.1367 24.4076 80.8843 25.6692H81.8656C81.1179 22.8656 79.5993 20.319 77.4032 18.2864C74.3659 15.5061 70.4408 14.0576 66.3289 14.2212C65.6513 14.2445 64.9738 14.3146 64.2963 14.4314C64.1561 14.5716 64.0159 14.7351 63.8757 14.8753C61.1656 17.8191 59.717 21.6507 59.8105 25.6459C59.8105 23.7768 60.5114 21.9778 61.7964 20.576Z" fill="url(#paint7_linear_4301_680)"/>
<path d="M82.7529 29.0087C82.7529 29.0087 82.1689 26.7424 81.8885 25.6677H80.9072C81.538 26.719 82.7529 29.0087 82.7529 29.0087Z" fill="url(#paint8_linear_4301_680)"/>
<path d="M62.2424 31.184C60.7705 29.8289 59.9061 27.9832 59.836 25.9739C59.836 25.8805 59.836 25.7636 59.836 25.6702C59.7425 21.675 61.1911 17.8434 63.9012 14.8996C65.7703 12.867 68.1066 11.3951 70.6766 10.6008C66.5646 10.7643 62.7564 12.5399 59.9762 15.5772C57.4062 18.3574 55.981 21.932 55.9109 25.6702C55.9109 25.9973 55.9109 26.3244 55.9109 26.6514C55.9343 27.329 56.0044 28.0065 56.1212 28.6841C56.2614 28.8242 56.4249 28.9644 56.5651 29.1046C59.6023 31.8849 63.5274 33.3334 67.6394 33.1699C65.6301 33.2633 63.7143 32.5624 62.2424 31.184Z" fill="url(#paint9_linear_4301_680)"/>
<path d="M78.7825 25.668H74.8574C74.8574 27.5604 74.1565 29.3594 72.8715 30.7612C71.5164 32.2331 69.6707 33.0976 67.6615 33.1677C63.5495 33.3312 59.6011 31.906 56.5872 29.1024C55.4658 28.0744 54.5312 26.9296 53.7836 25.668C53.1528 24.6166 52.6621 23.4952 52.2883 22.327C52.335 23.4718 52.4986 24.5933 52.8023 25.668C53.55 28.4716 55.0686 31.0182 57.2647 33.0509C60.302 35.8311 64.227 37.2796 68.339 37.1161C69.0166 37.0927 69.6941 37.0226 70.3716 36.9058C70.3716 36.9058 80.4646 35.0134 80.4646 25.6914H78.7825V25.668Z" fill="url(#paint10_linear_4301_680)"/>
<path d="M66.6813 10.2485C62.5694 10.412 58.7611 12.1876 55.9809 15.2249C54.1118 17.2575 52.8502 19.7106 52.2661 22.3274C52.6165 23.4955 53.1305 24.617 53.7613 25.6683C54.4155 26.7664 55.2099 27.771 56.1211 28.6822C56.0042 28.028 55.9341 27.3505 55.9108 26.6496C55.8874 26.3225 55.8874 25.9954 55.9108 25.6683C55.9809 21.9068 57.4061 18.3556 59.976 15.5753C62.7563 12.5381 66.5645 10.7858 70.6765 10.5989C69.3681 10.3185 68.0364 10.2017 66.6813 10.2485Z" fill="url(#paint11_linear_4301_680)"/>
<path d="M80.9074 25.6685C80.2532 24.5704 79.4589 23.5658 78.5477 22.6546C78.6645 23.3088 78.7346 23.9863 78.758 24.6872C78.7814 25.0143 78.7814 25.3414 78.758 25.6685C78.758 25.6685 78.758 29.2898 78.758 33.1915C78.758 37.7941 82.7298 40.7146 82.7298 40.7146V29.0095L80.9074 25.6685Z" fill="url(#paint12_linear_4301_680)"/>
<path d="M60.49 31.6037C57.2659 30.1552 55.1632 27.6786 53.9015 25.6694C52.8268 23.9405 52.3362 22.5387 52.2661 22.3518C52.6165 23.52 53.1305 24.618 53.738 25.6694C54.4856 26.931 55.4202 28.0992 56.5416 29.1038C59.5788 31.8841 63.5039 33.3326 67.6159 33.1691C68.2 33.1457 68.784 33.0522 69.3448 32.8887C67.2187 33.2859 64.1581 33.2625 60.49 31.6037Z" fill="url(#paint13_linear_4301_680)"/>
<path d="M76.1399 37.2335C76.1866 37.3036 76.2334 37.3504 76.2567 37.3971C76.2334 37.327 76.1866 37.2803 76.1399 37.2335Z" fill="url(#paint14_linear_4301_680)"/>
<path d="M76.1388 37.2099C74.8304 35.3876 74.8304 32.8176 74.8304 32.8176V25.6684C74.8304 25.5749 74.8304 25.4581 74.8304 25.3647C74.807 24.7806 74.7136 24.1965 74.55 23.6358C74.6669 24.2432 74.7136 24.9208 74.7369 25.6918C74.7369 25.6918 74.7369 29.9439 74.7369 32.841C74.7136 34.9671 75.6481 36.5324 76.1388 37.2099Z" fill="url(#paint15_linear_4301_680)"/>
<path d="M76.2805 37.3985C76.374 37.5153 76.4207 37.562 76.4207 37.562C76.374 37.5153 76.3272 37.4686 76.2805 37.3985Z" fill="url(#paint16_linear_4301_680)"/>
<path d="M82.7316 25.014C82.568 20.902 80.7924 17.0938 77.7551 14.3135C75.7225 12.4444 73.2694 11.1828 70.6526 10.5987C68.2696 11.323 66.0968 12.6313 64.2978 14.4537C64.952 14.3369 65.6295 14.2668 66.3304 14.2434C70.4424 14.0799 74.3908 15.505 77.4047 18.3087C79.6008 20.3179 81.1195 22.8645 81.8671 25.6915H82.7316C82.7549 25.4579 82.7549 25.2476 82.7316 25.014Z" fill="url(#paint17_linear_4301_680)"/>
<path d="M82.7536 25.6674H81.8892C82.1695 26.7421 82.7536 29.0084 82.7536 29.0084C82.7536 29.0084 82.7536 26.7888 82.7536 25.6674Z" fill="url(#paint18_linear_4301_680)"/>
<path d="M61.3758 18.8226C64.0626 12.865 70.2306 10.7389 70.6278 10.5987C68.0578 11.3931 65.7448 12.865 63.8757 14.8742C61.1656 17.818 59.717 21.6496 59.8105 25.6448C59.8105 25.6448 59.9507 23.8692 59.9974 23.5888C60.1843 22.1636 60.6048 20.5749 61.3758 18.8226Z" fill="url(#paint19_linear_4301_680)"/>
<path d="M79.0389 33.3582C79.0389 29.4565 79.0389 25.8352 79.0389 25.8352C79.0389 25.5081 79.0389 25.181 79.0389 24.8539C79.0155 24.1764 78.9454 23.4988 78.8286 22.8213C78.6884 22.6811 78.5249 22.5409 78.3847 22.4007C75.3475 19.6205 71.4224 18.1719 67.3104 18.3355C69.3197 18.242 71.2355 18.9429 72.7074 20.3214C74.1793 21.6765 75.0437 23.5222 75.1138 25.5314C75.1138 25.6249 75.1138 25.7417 75.1138 25.8352V32.9844C75.1138 37.3533 78.6651 40.9046 83.034 40.9046C83.0107 40.8812 79.0389 37.9608 79.0389 33.3582Z" fill="#139B48"/>
<path d="M80.9109 25.6675C80.1633 24.4059 79.2288 23.2377 78.1073 22.2331C75.0701 19.4528 71.145 18.0043 67.0331 18.1679C66.449 18.1912 65.8649 18.2847 65.3042 18.4482C67.4536 18.051 70.5142 18.0744 74.1823 19.7332C77.4064 21.1817 79.5091 23.6583 80.7708 25.6675C81.8455 27.3964 82.7099 28.7982 82.7567 28.9851C82.3828 27.817 81.5184 26.6955 80.9109 25.6675Z" fill="url(#paint20_linear_4301_680)"/>
<path d="M43.3186 31.352C41.8467 29.9969 41.5897 28.1746 41.5196 26.1887C41.5196 26.0952 41.5196 25.9784 41.5196 25.8849V10.909C41.5196 6.58673 37.4076 3.05885 33.0854 3.05885C33.0854 3.05885 37.0338 5.95591 37.0338 10.5352C37.0338 14.4135 37.0338 25.8849 37.0338 25.8849C37.0338 26.212 37.0338 26.5391 37.0338 26.8662C37.0572 27.5437 37.1273 28.2213 37.2441 28.8755C37.3843 29.0156 37.5245 29.1558 37.688 29.296C40.3982 31.7725 43.8092 33.1977 47.4306 33.3145V33.2678C45.9119 33.0809 44.4634 32.4267 43.3186 31.352Z" fill="#191919"/>
<path d="M37.0133 26.8668C36.99 26.5397 36.99 26.2126 37.0133 25.8855C37.0133 25.8855 37.0133 14.4141 37.0133 10.5357C37.0133 5.97985 33.0649 3.05942 33.0649 3.05942L33.1584 25.8855H34.9106C35.5648 26.9602 36.3358 27.9649 37.247 28.876C37.1301 28.2219 37.0601 27.5443 37.0133 26.8668Z" fill="#191919"/>
<path d="M41.5251 26.1897C41.5251 26.0963 41.5251 25.9794 41.5251 25.886C41.5018 25.9794 41.5018 26.0963 41.5251 26.1897Z" fill="#191919"/>
<path d="M51.0285 37.053C50.4678 37.1465 49.9071 37.1932 49.3464 37.2166C49.0193 37.2399 48.6922 37.2399 48.3651 37.2166C48.1315 37.2166 47.9212 37.1932 47.6876 37.1932C47.5941 37.1932 47.4773 37.1698 47.3838 37.1698C47.267 37.1698 47.1502 37.1465 47.0334 37.1465C46.8932 37.1231 46.7764 37.1231 46.6362 37.0998C46.5661 37.0998 46.4727 37.0764 46.4026 37.0764C46.239 37.053 46.0988 37.0297 45.9353 37.0063C45.8886 37.0063 45.8185 36.9829 45.7718 36.9829C45.6082 36.9596 45.4213 36.9128 45.2578 36.8661C45.2344 36.8661 45.1877 36.8428 45.1643 36.8428C44.9774 36.796 44.7905 36.7493 44.6036 36.7026C44.5802 36.7026 44.5569 36.7026 44.5569 36.6792C44.3699 36.6325 44.1597 36.5624 43.9728 36.5157H43.9494C43.7625 36.4456 43.5522 36.3755 43.3653 36.3054C41.543 35.6279 39.8374 34.5999 38.3655 33.2214C36.1927 31.2355 34.6741 28.7123 33.9498 25.932C33.4125 24.647 33.0854 20.3014 33.0854 20.3014C33.0854 20.3014 33.1789 24.8106 33.1789 25.932C33.1789 26.1423 33.1789 26.3526 33.1789 26.5628C33.3424 30.6514 35.0246 34.413 38.0385 37.1932C40.0477 39.0389 42.4775 40.3005 45.0942 40.8846C45.5148 40.9781 46.239 41.1416 46.7764 41.1416C46.9166 41.1416 47.0334 41.165 47.1736 41.165C49.323 41.165 51.0753 39.4127 51.0753 37.2633C51.0285 37.1465 51.0285 37.0998 51.0285 37.053Z" fill="#191919"/>
<path d="M48.3651 33.502C48.038 33.3851 47.6876 33.315 47.3371 33.315C43.7391 33.1515 40.3748 31.7497 37.688 29.2965C36.5899 28.2919 35.6554 27.1471 34.9077 25.9088C33.7162 24.25 33.0854 19.4605 33.0854 19.4605C33.0854 19.4605 33.1321 23.6659 33.9498 25.9088C34.6975 28.6891 36.1927 31.2123 38.3655 33.1982C39.8374 34.5533 41.543 35.6047 43.3653 36.2822C44.954 36.8663 46.6362 37.1934 48.3651 37.2401C48.6922 37.2401 49.0193 37.2401 49.3464 37.2401C49.9071 37.2167 50.4678 37.17 51.0285 37.0766C50.9584 35.3944 49.8604 33.9926 48.3651 33.502Z" fill="#191919"/>
<path d="M43.5517 18.7597C48.1076 18.7597 51.028 14.8112 51.028 14.8112H33.0615V18.7597C36.4959 18.7597 41.5424 18.7597 43.5517 18.7597Z" fill="#191919"/>
<path d="M43.5517 18.7597C41.5191 18.7597 36.4959 18.7597 33.0615 18.7597V22.6614H43.1779C43.2246 22.6614 43.2713 22.6614 43.3181 22.6614C43.6451 22.638 44.5563 22.5913 45.5609 22.2875C48.715 21.2829 51.028 18.3158 51.028 14.8112C51.028 14.8112 48.1076 18.7597 43.5517 18.7597Z" fill="#191919"/>
<path d="M47.7124 21.2356C47.6657 21.2824 47.5956 21.3291 47.5488 21.3525C47.6189 21.3057 47.6657 21.259 47.7124 21.2356Z" fill="#191919"/>
<path d="M47.7327 21.2352C47.8495 21.1418 47.8962 21.095 47.8962 21.095C47.8495 21.1418 47.7794 21.1885 47.7327 21.2352Z" fill="#191919"/>
<defs>
<linearGradient id="paint0_linear_4301_680" x1="84.7877" y1="31.5684" x2="88.7673" y2="31.5684" gradientUnits="userSpaceOnUse">
<stop stop-color="#8DC63F"/>
<stop offset="1" stop-color="#00A651"/>
</linearGradient>
<linearGradient id="paint1_linear_4301_680" x1="90.7677" y1="21.2228" x2="90.7343" y2="25.1597" gradientUnits="userSpaceOnUse">
<stop stop-color="#8DC63F"/>
<stop offset="1" stop-color="#00A651"/>
</linearGradient>
<linearGradient id="paint2_linear_4301_680" x1="84.7892" y1="19.7237" x2="92.7019" y2="19.7237" gradientUnits="userSpaceOnUse">
<stop stop-color="#8DC63F"/>
<stop offset="1" stop-color="#00A651"/>
</linearGradient>
<linearGradient id="paint3_linear_4301_680" x1="84.8499" y1="4.79572" x2="89.6886" y2="4.79572" gradientUnits="userSpaceOnUse">
<stop stop-color="#8DC63F"/>
<stop offset="1" stop-color="#00A651"/>
</linearGradient>
<linearGradient id="paint4_linear_4301_680" x1="84.2274" y1="21.9347" x2="92.2712" y2="32.2712" gradientUnits="userSpaceOnUse">
<stop stop-color="#6D6E71"/>
<stop offset="0.51" stop-color="white"/>
<stop offset="1" stop-color="#6D6E71"/>
</linearGradient>
<linearGradient id="paint5_linear_4301_680" x1="52.3403" y1="31.7099" x2="75.063" y2="31.7099" gradientUnits="userSpaceOnUse">
<stop stop-color="#8DC63F"/>
<stop offset="1" stop-color="#00A651"/>
</linearGradient>
<linearGradient id="paint6_linear_4301_680" x1="82.2829" y1="28.766" x2="58.6257" y2="25.6645" gradientUnits="userSpaceOnUse">
<stop stop-color="#FA8F5E"/>
<stop offset="0.1907" stop-color="#FDC86E"/>
<stop offset="0.6573" stop-color="#F53042"/>
<stop offset="0.7105" stop-color="#E92C3E"/>
<stop offset="0.807" stop-color="#C92132"/>
<stop offset="0.935" stop-color="#951020"/>
<stop offset="1" stop-color="#780616"/>
</linearGradient>
<linearGradient id="paint7_linear_4301_680" x1="83.1091" y1="22.4587" x2="59.4521" y2="19.3573" gradientUnits="userSpaceOnUse">
<stop stop-color="#8DC63F"/>
<stop offset="1" stop-color="#00A651"/>
</linearGradient>
<linearGradient id="paint8_linear_4301_680" x1="82.7934" y1="27.3955" x2="54.7374" y2="23.7174" gradientUnits="userSpaceOnUse">
<stop stop-color="#8DC63F"/>
<stop offset="1" stop-color="#00A651"/>
</linearGradient>
<linearGradient id="paint9_linear_4301_680" x1="65.7155" y1="9.92985" x2="60.9928" y2="32.432" gradientUnits="userSpaceOnUse">
<stop stop-color="#8DC63F"/>
<stop offset="1" stop-color="#00A651"/>
</linearGradient>
<linearGradient id="paint10_linear_4301_680" x1="52.3402" y1="29.7222" x2="75.0629" y2="29.7222" gradientUnits="userSpaceOnUse">
<stop stop-color="#8DC63F"/>
<stop offset="1" stop-color="#00A651"/>
</linearGradient>
<linearGradient id="paint11_linear_4301_680" x1="62.9546" y1="9.34858" x2="58.2319" y2="31.8507" gradientUnits="userSpaceOnUse">
<stop stop-color="#8DC63F"/>
<stop offset="1" stop-color="#00A651"/>
</linearGradient>
<linearGradient id="paint12_linear_4301_680" x1="79.4815" y1="41.6962" x2="81.6801" y2="22.8088" gradientUnits="userSpaceOnUse">
<stop stop-color="#8DC63F"/>
<stop offset="1" stop-color="#00A651"/>
</linearGradient>
<linearGradient id="paint13_linear_4301_680" x1="51.2155" y1="23.9059" x2="68.3779" y2="34.5119" gradientUnits="userSpaceOnUse">
<stop stop-color="#6D6E71"/>
<stop offset="0.51" stop-color="white"/>
<stop offset="1" stop-color="#6D6E71"/>
</linearGradient>
<linearGradient id="paint14_linear_4301_680" x1="74.4686" y1="23.6267" x2="76.2372" y2="37.4889" gradientUnits="userSpaceOnUse">
<stop stop-color="#6D6E71"/>
<stop offset="0.51" stop-color="white"/>
<stop offset="1" stop-color="#6D6E71"/>
</linearGradient>
<linearGradient id="paint15_linear_4301_680" x1="74.0675" y1="23.6812" x2="75.8362" y2="37.5437" gradientUnits="userSpaceOnUse">
<stop stop-color="#6D6E71"/>
<stop offset="0.51" stop-color="white"/>
<stop offset="1" stop-color="#6D6E71"/>
</linearGradient>
<linearGradient id="paint16_linear_4301_680" x1="74.583" y1="23.613" x2="76.3517" y2="37.4757" gradientUnits="userSpaceOnUse">
<stop stop-color="#6D6E71"/>
<stop offset="0.51" stop-color="white"/>
<stop offset="1" stop-color="#6D6E71"/>
</linearGradient>
<linearGradient id="paint17_linear_4301_680" x1="84.5524" y1="25.5888" x2="65.0659" y2="9.40391" gradientUnits="userSpaceOnUse">
<stop stop-color="#8DC63F"/>
<stop offset="1" stop-color="#00A651"/>
</linearGradient>
<linearGradient id="paint18_linear_4301_680" x1="83.1261" y1="27.6459" x2="61.5079" y2="9.69036" gradientUnits="userSpaceOnUse">
<stop stop-color="#8DC63F"/>
<stop offset="1" stop-color="#00A651"/>
</linearGradient>
<linearGradient id="paint19_linear_4301_680" x1="69.3714" y1="9.70062" x2="58.7027" y2="24.6108" gradientUnits="userSpaceOnUse">
<stop stop-color="#6D6E71"/>
<stop offset="0.51" stop-color="white"/>
<stop offset="1" stop-color="#6D6E71"/>
</linearGradient>
<linearGradient id="paint20_linear_4301_680" x1="66.5261" y1="16.9629" x2="83.4732" y2="27.4807" gradientUnits="userSpaceOnUse">
<stop stop-color="#6D6E71"/>
<stop offset="0.51" stop-color="white"/>
<stop offset="1" stop-color="#6D6E71"/>
</linearGradient>
</defs>
</svg>
