<svg width="51" height="50" viewBox="0 0 51 50" fill="none" xmlns="http://www.w3.org/2000/svg">
<rect x="0.760254" width="50" height="50" rx="10" fill="#F9F9F9"/>
<path d="M19.4399 21.794C19.8141 18.4909 22.5312 16 25.7603 16C28.9893 16 31.7064 18.4909 32.0806 21.794L32.4255 24.8385C32.5112 25.595 32.8178 26.3069 33.3048 26.88C34.3382 28.0964 33.4994 30 31.9301 30H19.5904C18.0211 30 17.1823 28.0964 18.2157 26.88C18.7027 26.3069 19.0093 25.595 19.095 24.8385L19.4399 21.794Z" stroke="#16151C" stroke-width="1.5" stroke-linejoin="round"/>
<path d="M28.7603 32C28.3236 33.1652 27.1453 34 25.7603 34C24.3752 34 23.1969 33.1652 22.7603 32" stroke="#16151C" stroke-width="1.5" stroke-linecap="round"/>
</svg>
