<svg width="25" height="24" viewBox="0 0 25 24" fill="none" xmlns="http://www.w3.org/2000/svg">
<path fill-rule="evenodd" clip-rule="evenodd" d="M3.51025 11.5C3.51025 16.3325 7.42776 20.25 12.2603 20.25C17.0927 20.25 21.0103 16.3325 21.0103 11.5C21.0103 6.66751 17.0927 2.75 12.2603 2.75C7.42776 2.75 3.51025 6.66751 3.51025 11.5ZM12.2603 21.75C6.59934 21.75 2.01025 17.1609 2.01025 11.5C2.01025 5.83908 6.59934 1.25 12.2603 1.25C17.9212 1.25 22.5103 5.83908 22.5103 11.5C22.5103 14.0605 21.5714 16.4017 20.0191 18.1982L23.2906 21.4697C23.5835 21.7626 23.5835 22.2374 23.2906 22.5303C22.9977 22.8232 22.5228 22.8232 22.2299 22.5303L18.9585 19.2589C17.162 20.8111 14.8208 21.75 12.2603 21.75Z" fill="#16151C"/>
</svg>
