<svg width="16" height="18" viewBox="0 0 16 18" fill="none" xmlns="http://www.w3.org/2000/svg">
<path d="M6.76923 2.46154H9.23077C9.23077 2.13512 9.1011 1.82207 8.87029 1.59125C8.63947 1.36044 8.32642 1.23077 8 1.23077C7.67358 1.23077 7.36053 1.36044 7.12971 1.59125C6.8989 1.82207 6.76923 2.13512 6.76923 2.46154ZM5.53846 2.46154C5.53846 1.8087 5.7978 1.1826 6.25943 0.720968C6.72106 0.25934 7.34716 0 8 0C8.65284 0 9.27894 0.25934 9.74057 0.720968C10.2022 1.1826 10.4615 1.8087 10.4615 2.46154H15.3846C15.5478 2.46154 15.7044 2.52637 15.8198 2.64178C15.9352 2.75719 16 2.91371 16 3.07692C16 3.24013 15.9352 3.39666 15.8198 3.51207C15.7044 3.62747 15.5478 3.69231 15.3846 3.69231H14.6905L13.2074 14.5698C13.1068 15.307 12.7425 15.9827 12.182 16.472C11.6215 16.9612 10.9027 17.2308 10.1588 17.2308H5.84123C5.09725 17.2308 4.37847 16.9612 3.81797 16.472C3.25747 15.9827 2.8932 15.307 2.79262 14.5698L1.30954 3.69231H0.615385C0.452174 3.69231 0.295649 3.62747 0.180242 3.51207C0.0648349 3.39666 0 3.24013 0 3.07692C0 2.91371 0.0648349 2.75719 0.180242 2.64178C0.295649 2.52637 0.452174 2.46154 0.615385 2.46154H5.53846ZM6.76923 6.76923C6.76923 6.60602 6.7044 6.44949 6.58899 6.33409C6.47358 6.21868 6.31706 6.15385 6.15385 6.15385C5.99064 6.15385 5.83411 6.21868 5.7187 6.33409C5.6033 6.44949 5.53846 6.60602 5.53846 6.76923V12.9231C5.53846 13.0863 5.6033 13.2428 5.7187 13.3582C5.83411 13.4736 5.99064 13.5385 6.15385 13.5385C6.31706 13.5385 6.47358 13.4736 6.58899 13.3582C6.7044 13.2428 6.76923 13.0863 6.76923 12.9231V6.76923ZM9.84615 6.15385C10.0094 6.15385 10.1659 6.21868 10.2813 6.33409C10.3967 6.44949 10.4615 6.60602 10.4615 6.76923V12.9231C10.4615 13.0863 10.3967 13.2428 10.2813 13.3582C10.1659 13.4736 10.0094 13.5385 9.84615 13.5385C9.68294 13.5385 9.52642 13.4736 9.41101 13.3582C9.2956 13.2428 9.23077 13.0863 9.23077 12.9231V6.76923C9.23077 6.60602 9.2956 6.44949 9.41101 6.33409C9.52642 6.21868 9.68294 6.15385 9.84615 6.15385ZM4.01231 14.4037C4.07271 14.8459 4.29125 15.2512 4.6275 15.5447C4.96375 15.8382 5.39492 15.9999 5.84123 16H10.1588C10.6053 16.0002 11.0368 15.8386 11.3733 15.5451C11.7098 15.2516 11.9285 14.8461 11.9889 14.4037L13.4486 3.69231H2.55138L4.01231 14.4037Z" fill="#191919"/>
</svg>
